<?xml version="1.0" standalone="no"?>
<!DOCTYPE svg PUBLIC "-//W3C//DTD SVG 20010904//EN"
 "http://www.w3.org/TR/2001/REC-SVG-20010904/DTD/svg10.dtd">
<svg version="1.0" xmlns="http://www.w3.org/2000/svg"
 width="460.000000pt" height="426.000000pt" viewBox="0 0 460.000000 426.000000"
 preserveAspectRatio="xMidYMid meet">

<g transform="translate(0.000000,426.000000) scale(0.100000,-0.100000)"
fill="#000000" stroke="none">
<path d="M2115 4130 c-131 -8 -225 -23 -360 -56 -117 -29 -283 -82 -290 -93
-2 -4 15 -79 39 -166 l43 -158 199 -57 c109 -31 211 -60 227 -64 l27 -6 0 72
c0 40 3 83 6 96 l6 22 272 -2 271 -3 3 -107 c1 -60 5 -108 8 -108 9 0 389 131
402 139 16 10 142 324 134 333 -29 30 -347 118 -512 141 -135 20 -335 27 -475
17z m480 -45 c172 -26 475 -112 475 -136 0 -8 -97 -256 -106 -270 -2 -4 -36 2
-74 12 -140 36 -271 51 -523 56 -266 6 -448 -4 -655 -37 -67 -11 -128 -20
-136 -20 -8 0 -24 43 -45 120 -17 66 -34 127 -37 135 -16 40 343 134 589 155
132 11 387 4 512 -15z m-615 -445 c0 -49 -4 -70 -12 -70 -15 0 -330 88 -335
94 -6 5 34 13 132 26 122 15 137 17 178 19 l37 1 0 -70z m772 50 c138 -24 179
-35 158 -44 -47 -18 -310 -106 -319 -106 -7 0 -11 29 -11 85 l0 85 29 0 c16 0
80 -9 143 -20z"/>
<path d="M2381 3997 c-12 -16 -15 -35 -13 -94 2 -54 22 -57 22 -4 0 22 5 42
13 44 9 4 9 8 -2 15 -12 8 -12 13 -2 25 7 9 8 18 3 21 -6 3 -15 0 -21 -7z"/>
<path d="M2480 3973 c0 -10 -3 -42 -6 -70 -7 -57 9 -76 20 -23 3 18 12 30 21
30 10 0 15 -10 15 -30 0 -39 16 -39 24 1 9 48 7 99 -4 99 -5 0 -10 -11 -10
-25 0 -18 -5 -25 -20 -25 -16 0 -20 7 -20 30 0 17 -4 30 -10 30 -5 0 -10 -8
-10 -17z"/>
<path d="M1880 3970 c0 -5 5 -10 10 -10 6 0 10 5 10 10 0 6 -4 10 -10 10 -5 0
-10 -4 -10 -10z"/>
<path d="M2013 3965 c-24 -43 17 -145 42 -105 3 6 2 10 -4 10 -17 0 -25 49
-11 65 8 9 8 15 2 15 -6 0 -12 8 -14 18 -3 15 -5 15 -15 -3z"/>
<path d="M1730 3950 c0 -5 5 -10 10 -10 6 0 10 5 10 10 0 6 -4 10 -10 10 -5 0
-10 -4 -10 -10z"/>
<path d="M2135 3920 c18 -50 19 -90 4 -90 -5 0 -8 -4 -4 -10 13 -22 34 5 49
65 19 75 19 75 7 75 -5 0 -13 -17 -18 -37 l-10 -38 -9 34 c-6 19 -15 36 -22
39 -8 2 -7 -9 3 -38z"/>
<path d="M2268 3935 c-22 -49 25 -98 60 -63 7 7 12 24 12 38 0 51 -52 69 -72
25z m52 -25 c0 -32 -26 -43 -36 -15 -9 21 3 45 21 45 10 0 15 -10 15 -30z"/>
<path d="M2776 3943 c-12 -45 -17 -123 -8 -123 6 0 14 21 17 48 3 26 8 57 11
70 5 26 -12 30 -20 5z"/>
<path d="M1683 3943 c-7 -3 -13 -19 -13 -36 0 -55 -15 -62 -33 -17 -9 25 -22
40 -32 40 -15 0 -16 -7 -10 -57 8 -65 14 -85 25 -78 4 2 4 24 0 47 -5 24 -7
44 -5 46 2 2 13 -18 25 -45 25 -56 39 -46 41 27 0 34 2 40 9 25 5 -11 9 -35 9
-52 1 -18 6 -33 12 -33 8 0 10 19 5 63 -8 66 -13 77 -33 70z"/>
<path d="M1943 3943 c-21 -8 -15 -41 10 -58 l22 -15 -22 -6 c-13 -4 -23 -10
-23 -15 0 -15 37 -10 50 6 11 13 9 20 -9 38 -25 28 -27 37 -5 37 8 0 12 5 9
10 -7 11 -13 11 -32 3z"/>
<path d="M2070 3900 c0 -27 5 -50 10 -50 6 0 10 18 10 40 0 22 5 40 10 40 6 0
10 5 10 10 0 6 -9 10 -20 10 -17 0 -20 -7 -20 -50z"/>
<path d="M1885 3893 c7 -51 11 -60 21 -50 10 10 -6 97 -18 97 -7 0 -8 -16 -3
-47z"/>
<path d="M2592 3928 c-15 -15 -16 -60 0 -76 15 -15 48 -16 48 -2 0 6 -3 9 -7
9 -19 -3 -33 2 -33 11 0 6 12 10 26 10 22 0 25 4 22 28 -3 30 -34 42 -56 20z
m38 -18 c0 -5 -7 -10 -15 -10 -8 0 -15 5 -15 10 0 6 7 10 15 10 8 0 15 -4 15
-10z"/>
<path d="M2887 3918 c-3 -13 -9 -44 -12 -70 -8 -56 9 -67 19 -13 4 21 13 35
22 35 11 0 13 -9 8 -40 -4 -25 -3 -40 4 -40 12 0 27 75 17 90 -3 5 -14 10 -24
10 -14 0 -17 6 -13 25 5 31 -14 33 -21 3z"/>
<path d="M1787 3923 c-1 -1 -1 -22 1 -47 5 -57 22 -61 22 -5 0 52 24 48 28 -4
4 -48 22 -48 22 1 0 49 -9 61 -43 59 -16 -1 -29 -3 -30 -4z"/>
<path d="M2680 3920 c0 -5 9 -10 20 -10 27 0 25 -18 -2 -22 -17 -2 -23 -10
-23 -28 0 -19 5 -25 23 -24 12 0 22 -3 22 -8 0 -5 5 -6 10 -3 17 11 12 92 -6
99 -24 9 -44 7 -44 -4z m40 -54 c0 -16 -18 -31 -27 -22 -8 8 5 36 17 36 5 0
10 -6 10 -14z"/>
<path d="M2825 3917 c-17 -20 -12 -97 7 -108 14 -8 15 -4 11 32 -4 26 -2 44 6
48 6 4 9 15 5 24 -7 20 -15 21 -29 4z"/>
<path d="M1743 3875 c2 -26 7 -49 11 -52 12 -13 16 5 10 50 -9 61 -28 62 -21
2z"/>
<path d="M1370 3864 c-121 -32 -252 -113 -318 -197 -55 -68 -132 -238 -132
-290 0 -16 83 56 234 203 155 152 294 300 280 299 -5 0 -34 -7 -64 -15z"/>
<path d="M3158 3843 c89 -110 476 -482 489 -470 2 3 -7 38 -20 80 -72 227
-230 368 -471 422 l-28 6 30 -38z"/>
<path d="M883 3639 c-63 -41 -134 -112 -159 -161 -35 -67 -48 -160 -46 -330 0
-93 4 -173 7 -178 4 -6 37 18 79 57 39 37 107 92 151 122 125 85 212 157 244
204 24 36 71 149 71 172 0 4 -23 -18 -50 -48 -31 -34 -91 -80 -153 -118 -59
-36 -134 -94 -179 -137 -43 -42 -80 -74 -82 -71 -5 5 55 233 79 298 8 25 37
87 64 138 27 51 46 93 43 93 -4 0 -35 -18 -69 -41z"/>
<path d="M3648 3609 c22 -41 52 -103 67 -138 33 -79 96 -321 84 -321 -5 0 -44
35 -87 78 -50 50 -110 96 -170 132 -56 33 -116 79 -149 113 -61 64 -62 60 -21
-51 27 -73 104 -150 253 -252 60 -41 142 -106 182 -145 l72 -70 7 75 c16 168
3 343 -32 426 -22 53 -91 131 -154 174 -93 63 -97 62 -52 -21z"/>
<path d="M2203 3380 c-34 -14 -57 -55 -44 -78 6 -11 17 -22 26 -26 12 -4 15
-25 15 -103 l0 -99 78 8 c42 3 78 7 80 7 1 1 2 43 2 95 0 70 3 95 14 99 25 10
26 46 2 74 -20 23 -32 27 -87 30 -35 1 -74 -1 -86 -7z"/>
<path d="M554 3310 c-56 -98 -86 -195 -91 -301 -7 -130 7 -204 80 -398 l61
-165 28 63 c36 82 95 165 206 293 49 57 101 123 115 148 26 45 61 162 55 181
-2 6 -18 -10 -37 -34 -18 -25 -69 -71 -113 -103 -125 -92 -205 -202 -229 -314
-6 -30 -16 -50 -24 -50 -24 0 -25 15 -9 91 12 57 14 99 9 184 -4 61 -10 189
-14 285 l-6 175 -31 -55z"/>
<path d="M3975 3163 c-11 -260 -12 -405 -1 -475 8 -50 7 -58 -7 -58 -10 0 -19
11 -23 28 -31 141 -99 236 -244 343 -41 31 -88 74 -104 97 -16 23 -31 42 -33
42 -3 0 -2 -21 1 -47 12 -82 67 -179 172 -298 116 -133 145 -173 191 -270 19
-42 37 -74 39 -72 11 11 118 322 130 377 31 145 9 302 -60 436 -19 38 -39 75
-44 82 -5 8 -12 -64 -17 -185z"/>
<path d="M2265 3053 c-298 -24 -376 -67 -409 -224 -3 -15 -11 -27 -18 -26 -40
1 -67 -5 -97 -24 -45 -27 -35 -34 14 -9 43 22 95 27 95 9 0 -6 -9 -22 -20 -36
-14 -18 -20 -39 -19 -72 l2 -46 6 47 c4 27 12 53 18 59 5 5 37 12 70 14 77 4
106 20 181 99 59 63 65 67 132 81 39 8 108 15 154 15 69 0 91 -4 136 -27 102
-51 154 -126 136 -198 -16 -63 -118 -140 -220 -166 l-46 -11 0 -71 0 -70 48 7
c78 10 144 36 209 83 105 74 152 155 153 261 0 138 -99 259 -245 297 -55 14
-170 17 -280 8z m-255 -183 c-8 -15 -31 -30 -46 -30 -12 0 -2 40 13 48 25 15
45 4 33 -18z"/>
<path d="M2235 2901 l-30 -6 -3 -366 -2 -365 67 -24 c38 -13 74 -25 81 -28 9
-3 12 80 12 397 l0 401 -47 -1 c-27 -1 -61 -4 -78 -8z"/>
<path d="M347 2690 c-16 -194 -3 -330 42 -425 36 -77 126 -197 235 -310 l85
-90 1 51 c0 28 7 91 15 140 15 82 27 123 98 321 29 80 43 153 52 263 l6 75
-24 -46 c-14 -25 -57 -88 -96 -140 -103 -136 -115 -172 -116 -346 -1 -80 -6
-144 -11 -144 -15 -3 -34 43 -34 81 0 55 -44 174 -129 346 -75 154 -106 232
-113 284 -2 14 -7 -13 -11 -60z"/>
<path d="M4202 2713 c-8 -38 -44 -126 -94 -225 -100 -202 -127 -272 -138 -360
-8 -67 -24 -103 -40 -93 -5 3 -6 54 -3 113 9 171 -16 246 -134 400 -36 48 -75
105 -85 127 l-19 40 6 -83 c8 -115 28 -205 71 -314 20 -51 43 -113 50 -138 19
-59 44 -213 44 -270 l1 -45 71 75 c95 101 190 219 227 283 57 101 76 237 63
447 l-7 105 -13 -62z"/>
<path d="M2130 2496 c-45 -13 -109 -78 -141 -141 -33 -69 -35 -193 -2 -246 45
-72 121 -109 332 -159 96 -23 128 -40 142 -77 12 -31 -6 -63 -51 -89 -27 -16
-30 -24 -30 -66 0 -26 3 -48 7 -48 3 0 43 18 88 40 85 40 140 90 151 135 15
58 -19 131 -74 159 -15 8 -97 37 -183 65 -204 67 -252 100 -266 184 -5 33 -2
41 31 72 37 34 37 35 34 108 l-3 73 -35 -10z"/>
<path d="M841 2058 c-31 -217 -27 -322 18 -427 17 -41 30 -75 29 -77 -2 -1
-98 91 -213 204 -147 145 -226 230 -260 283 -28 42 -56 84 -63 95 -11 16 -12
7 -8 -56 16 -228 163 -420 445 -579 89 -50 261 -133 261 -126 0 2 -18 37 -40
78 -35 65 -41 86 -50 173 -5 55 -10 151 -10 214 0 118 -25 245 -68 342 l-17
41 -24 -165z"/>
<path d="M3681 2165 c-47 -123 -60 -203 -69 -416 -8 -190 -11 -210 -35 -263
-15 -31 -36 -70 -47 -87 l-21 -29 26 10 c66 25 276 137 351 186 197 132 318
310 339 501 10 83 -1 95 -32 36 -43 -79 -112 -162 -223 -268 -58 -55 -147
-142 -197 -195 -51 -52 -93 -92 -93 -88 0 4 14 42 32 85 43 107 47 212 15 428
l-23 160 -23 -60z"/>
<path d="M2200 1780 l0 -167 40 -46 c23 -25 59 -60 81 -77 l39 -32 -2 228 -3
228 -77 17 -78 17 0 -168z"/>
<path d="M1050 1799 c0 -3 4 -19 10 -35 5 -16 23 -107 40 -202 40 -230 57
-262 203 -388 43 -37 62 -74 37 -74 -5 0 -37 20 -69 44 -71 52 -204 119 -361
181 -124 49 -202 96 -330 200 l-81 67 22 -44 c53 -106 186 -255 292 -327 69
-47 200 -106 287 -130 41 -11 136 -30 210 -41 74 -12 151 -25 172 -29 l38 -9
-44 52 c-60 71 -82 113 -183 341 -49 110 -107 227 -130 260 -42 62 -112 145
-113 134z"/>
<path d="M3456 1735 c-66 -81 -101 -146 -196 -365 -77 -177 -111 -239 -171
-311 l-39 -47 38 9 c21 4 98 17 172 29 182 28 267 52 386 111 114 56 211 132
294 231 56 67 126 175 118 183 -2 2 -37 -23 -78 -57 -126 -103 -189 -140 -340
-201 -164 -66 -271 -121 -347 -178 -59 -44 -73 -48 -73 -19 0 12 24 39 64 71
68 54 117 114 142 175 8 20 29 114 45 208 16 94 34 182 39 195 20 44 2 33 -54
-34z"/>
<path d="M2158 1673 c-21 -23 -33 -73 -24 -106 8 -34 199 -178 379 -286 73
-45 35 0 -65 75 -216 163 -260 210 -268 288 -5 47 -6 48 -22 29z"/>
<path d="M2200 1226 l0 -226 80 0 80 0 0 168 0 167 -38 27 c-20 14 -56 41 -79
58 l-43 32 0 -226z"/>
<path d="M1471 1241 c103 -150 210 -257 292 -291 54 -23 73 -40 43 -40 -7 0
-65 9 -127 21 -68 12 -194 24 -314 29 -259 11 -322 29 -492 141 -26 16 -34 18
-38 7 -2 -7 -31 -95 -63 -195 l-60 -183 123 -72 124 -72 -14 -33 -14 -33 47
-31 c104 -67 372 -190 518 -238 215 -71 578 -140 744 -141 24 -1 51 -12 89
-40 l54 -39 56 38 c54 36 62 38 201 55 342 39 642 124 923 261 53 26 100 51
102 56 3 5 -1 21 -8 36 -15 27 -13 28 77 126 50 55 90 104 88 111 -8 30 -135
342 -143 350 -5 6 -16 2 -29 -9 -11 -10 -20 -15 -20 -12 0 3 -24 -5 -54 -18
-102 -45 -164 -56 -371 -65 -122 -5 -245 -17 -314 -29 -62 -12 -120 -21 -127
-21 -29 0 -11 16 54 48 87 41 175 131 276 277 41 60 73 111 71 113 -10 10
-154 -97 -261 -193 -214 -193 -253 -216 -409 -238 l-90 -13 75 -7 c41 -4 131
-21 200 -37 179 -42 287 -54 420 -47 207 11 268 37 511 216 11 7 19 11 19 9 0
-4 -98 -90 -204 -179 -5 -4 1 -24 14 -43 l22 -36 -164 -79 c-261 -127 -472
-190 -703 -210 -93 -8 -130 -16 -166 -35 -46 -23 -47 -23 -75 -5 -35 21 -134
39 -224 39 -212 0 -502 87 -825 245 -213 105 -210 103 -194 138 7 15 15 27 19
27 4 0 37 -14 74 -31 156 -73 397 -78 666 -13 58 14 148 31 200 38 l95 12 -69
8 c-166 19 -211 44 -426 236 -121 108 -161 140 -244 190 -38 23 -37 21 45 -99z
m-461 -259 c47 -30 87 -56 89 -58 2 -2 -20 -59 -49 -126 -29 -68 -59 -137 -66
-155 l-14 -32 -102 61 c-57 33 -107 64 -113 69 -6 6 11 70 45 174 l54 164 36
-22 c19 -11 73 -46 120 -75z m2728 -119 l60 -152 -85 -91 -86 -91 -45 83 c-24
46 -62 114 -83 151 -22 38 -39 74 -38 80 1 16 202 187 210 179 3 -4 33 -75 67
-159z m-2517 -117 c164 -86 327 -155 480 -204 167 -53 255 -70 437 -81 145
-10 173 -16 228 -51 19 -11 25 -11 50 7 38 28 90 40 199 48 205 15 438 85 687
207 92 45 170 80 172 77 2 -2 40 -69 84 -149 l79 -145 -83 -42 c-257 -131
-615 -231 -939 -263 -109 -11 -125 -15 -172 -46 -29 -19 -55 -34 -59 -34 -3 0
-26 14 -51 31 -42 29 -56 33 -187 46 -339 33 -642 111 -906 235 -131 61 -270
140 -270 153 0 17 113 275 121 275 4 0 62 -29 130 -64z"/>
<path d="M1126 663 c-35 -70 -46 -103 -31 -103 7 0 17 9 20 20 5 15 12 19 30
14 16 -4 27 0 38 17 18 25 9 52 -23 69 -16 9 -22 6 -34 -17z m44 -28 c0 -17
-17 -28 -30 -20 -7 4 -7 13 0 26 12 21 30 17 30 -6z"/>
<path d="M1186 570 c-9 -22 -16 -45 -16 -50 0 -20 15 -9 30 23 8 17 21 31 28
30 16 -4 15 5 -2 23 -20 20 -22 19 -40 -26z"/>
<path d="M1242 550 c-25 -40 -5 -86 35 -78 26 5 47 53 33 78 -14 26 -52 26
-68 0z m51 -7 c8 -14 -12 -53 -28 -53 -18 0 -19 13 -5 41 11 20 25 25 33 12z"/>
<path d="M3432 538 c-17 -17 -15 -63 2 -78 17 -14 58 -10 63 6 2 7 -6 10 -22
7 -30 -6 -34 13 -5 22 24 8 25 18 4 39 -19 19 -26 20 -42 4z m32 -17 c3 -5 -1
-12 -10 -15 -20 -8 -29 -1 -19 13 8 13 22 14 29 2z"/>
<path d="M1326 497 c-18 -49 -19 -57 -7 -57 5 0 15 16 21 35 13 39 47 52 35
13 -15 -49 -17 -68 -8 -68 6 0 14 14 19 32 12 42 39 52 31 11 -3 -16 -7 -33
-9 -39 -2 -5 1 -11 6 -14 5 -3 15 13 22 34 15 42 4 72 -22 62 -7 -3 -15 2 -18
11 -4 8 -13 13 -21 9 -8 -3 -15 -1 -15 4 0 25 -19 6 -34 -33z"/>
<path d="M3368 513 c-22 -5 -21 1 -2 -57 10 -29 20 -44 26 -38 5 5 5 20 -2 37
-7 20 -8 31 0 39 5 5 10 14 10 18 0 8 -4 9 -32 1z"/>
<path d="M3197 482 c-23 -25 -22 -85 1 -105 21 -19 49 -22 72 -7 15 10 13 11
-30 13 -45 3 -54 83 -10 94 11 3 20 9 20 14 0 16 -36 9 -53 -9z"/>
<path d="M3279 474 c-11 -13 -9 -14 14 -9 32 8 36 -5 7 -23 -42 -26 -12 -70
33 -49 27 12 28 16 6 75 -10 26 -41 29 -60 6z m51 -48 c0 -8 -4 -17 -9 -21
-12 -7 -24 12 -16 25 9 15 25 12 25 -4z"/>
<path d="M1465 464 c-10 -10 -15 -29 -13 -48 3 -26 8 -32 32 -34 32 -4 46 10
46 49 0 45 -35 63 -65 33z m45 -28 c0 -28 -24 -53 -35 -36 -4 6 -4 22 -1 36 8
31 36 32 36 0z"/>
<path d="M1564 459 c-3 -6 -8 -33 -10 -60 -3 -39 -1 -49 12 -49 8 0 13 4 10 9
-11 17 6 71 21 71 12 0 13 3 4 13 -6 8 -8 17 -4 20 3 4 -1 7 -10 7 -9 0 -19
-5 -23 -11z"/>
<path d="M1616 408 c-22 -31 -20 -54 6 -72 25 -18 38 -20 38 -7 0 5 -9 11 -20
14 -33 9 -24 30 10 24 26 -6 30 -4 30 16 0 47 -39 61 -64 25z m44 -13 c0 -9
-6 -12 -15 -9 -8 4 -15 10 -15 15 0 5 7 9 15 9 8 0 15 -7 15 -15z"/>
<path d="M2930 399 c0 -16 -4 -28 -9 -24 -18 10 -43 -27 -36 -54 9 -37 32 -58
46 -44 6 6 18 9 27 6 12 -5 14 -1 9 18 -3 13 -9 48 -13 77 -7 56 -24 71 -24
21z m8 -68 c6 -37 -15 -49 -28 -17 -5 15 -7 32 -4 37 10 16 29 4 32 -20z"/>
<path d="M1821 370 c-6 -28 -11 -60 -11 -70 0 -31 17 -23 23 10 8 39 37 30 37
-11 0 -48 17 -32 29 28 13 69 14 73 1 73 -5 0 -12 -11 -16 -26 -9 -35 -40 -28
-36 8 5 49 -16 39 -27 -12z"/>
<path d="M3072 408 c-19 -19 -14 -34 14 -46 26 -13 24 -32 -4 -32 -11 0 -13
-3 -5 -11 8 -8 17 -8 32 0 28 16 26 31 -6 58 -22 18 -24 22 -10 23 9 0 17 5
17 10 0 14 -23 13 -38 -2z"/>
<path d="M1703 394 c-3 -9 -1 -25 5 -35 18 -29 15 -41 -9 -34 -15 5 -19 4 -15
-4 4 -6 19 -11 33 -11 26 0 28 15 8 64 -7 16 -5 18 9 13 12 -5 16 -3 14 5 -7
20 -37 21 -45 2z"/>
<path d="M2830 395 c0 -8 5 -15 10 -15 6 0 10 7 10 15 0 8 -4 15 -10 15 -5 0
-10 -7 -10 -15z"/>
<path d="M2992 388 c-7 -7 -12 -24 -12 -38 0 -14 5 -31 12 -38 15 -15 55 -16
64 -1 3 6 -1 10 -12 9 -49 -5 -63 13 -19 24 14 4 25 12 25 19 0 16 -20 37 -35
37 -6 0 -16 -5 -23 -12z m32 -17 c3 -5 -1 -11 -9 -15 -9 -3 -15 0 -15 9 0 16
16 20 24 6z"/>
<path d="M2106 348 c-12 -78 -13 -118 -5 -118 13 0 16 14 23 88 6 64 -9 89
-18 30z"/>
<path d="M2210 348 c0 -13 -3 -47 -6 -75 -8 -63 10 -74 20 -12 8 52 32 48 28
-6 -2 -27 0 -36 10 -33 17 6 22 66 7 84 -7 8 -18 13 -26 10 -9 -4 -13 4 -13
24 0 17 -4 30 -10 30 -5 0 -10 -10 -10 -22z"/>
<path d="M2509 356 c-8 -8 3 -136 12 -136 5 0 9 11 9 25 0 18 7 28 25 35 44
17 28 80 -20 80 -12 0 -24 -2 -26 -4z m49 -38 c2 -9 -4 -18 -13 -21 -11 -5
-15 0 -15 19 0 28 23 29 28 2z"/>
<path d="M2807 353 c-4 -3 -7 -22 -7 -40 0 -40 -16 -36 -25 7 -4 17 -11 30
-16 30 -13 0 -11 -14 7 -60 22 -55 41 -51 49 11 7 50 5 65 -8 52z"/>
<path d="M2844 313 c6 -48 12 -61 22 -51 9 10 -7 98 -18 98 -7 0 -8 -17 -4
-47z"/>
<path d="M1925 340 c-12 -19 -8 -72 6 -81 19 -12 49 -11 49 1 0 6 -9 10 -20
10 -11 0 -20 7 -20 15 0 12 7 14 26 9 23 -6 25 -4 22 22 -2 23 -9 30 -30 32
-14 2 -29 -2 -33 -8z m45 -21 c0 -5 -7 -9 -15 -9 -15 0 -20 12 -9 23 8 8 24
-1 24 -14z"/>
<path d="M2154 337 c-17 -20 -3 -111 19 -115 9 -2 17 1 17 7 0 6 -4 11 -10 11
-12 0 -13 57 -1 64 10 6 3 46 -8 46 -3 -1 -11 -6 -17 -13z"/>
<path d="M2354 335 c-4 -8 -3 -22 0 -30 3 -9 0 -25 -7 -35 -19 -31 2 -55 49
-56 39 -1 39 0 40 38 1 21 -2 38 -7 38 -5 0 -9 -8 -9 -17 0 -13 -3 -14 -12 -5
-8 8 -9 18 -1 34 5 13 8 29 6 36 -6 17 -52 15 -59 -3z m39 -21 c-4 -10 -9 -12
-15 -6 -12 12 -1 35 12 27 5 -3 6 -13 3 -21z m0 -59 c8 -18 -11 -31 -25 -17
-11 11 -3 32 12 32 4 0 10 -7 13 -15z"/>
<path d="M2020 331 c0 -5 10 -12 23 -16 20 -6 20 -7 -11 -16 -26 -8 -33 -14
-30 -32 2 -16 10 -22 26 -21 12 0 22 -3 22 -8 0 -4 4 -8 9 -8 13 0 21 83 9 97
-12 15 -48 18 -48 4z m30 -55 c0 -8 -4 -17 -9 -21 -12 -7 -24 12 -16 25 9 15
25 12 25 -4z"/>
<path d="M2671 326 c-7 -8 -11 -30 -9 -48 2 -26 8 -34 26 -36 46 -7 71 48 36
82 -19 20 -38 20 -53 2z m44 -25 c7 -23 -4 -53 -19 -48 -18 6 -20 67 -2 67 8
0 17 -8 21 -19z"/>
<path d="M2600 278 c0 -26 5 -48 10 -48 6 0 10 15 10 34 0 19 5 38 10 41 17
11 11 24 -10 22 -17 -1 -20 -8 -20 -49z"/>
<path d="M2268 842 c-4 -11 -189 -83 -300 -117 -156 -47 -319 -51 -453 -10
-27 8 -51 13 -53 11 -7 -7 90 -59 153 -82 147 -54 338 -69 480 -39 90 19 117
39 132 99 10 41 48 116 59 116 7 0 52 -96 59 -127 14 -67 74 -91 251 -100 181
-9 353 29 464 103 30 19 47 33 38 30 -172 -54 -336 -52 -516 5 -126 40 -276
99 -280 110 -5 11 -29 12 -34 1z"/>
</g>
</svg>
